# xmcd
#
# Track frame offsets: 
#        150
#        10658
#        23503
#        36932
#        50080
#        63952
#        74845
#        87812
#        101427
#        115531
#        127896
#        141203
#        152943
#
# Disc length: 2320 seconds
#
# Revision: 1
# Processed by: cddbd v1.5.2PL0 Copyright (c) Steve Scherf et al.
# Submitted via: ExactAudioCopyFreeDBPlugin 1.0
#
DISCID=a6090e0d
DTITLE=Multible Artists - Simply Salsa (Late Night Latin)
DYEAR=2004
DGENRE=Salsa
TTITLE0=La Sonora Matancera Y Justo Betancourt - Un Beso
TTITLE1=Pupi Campo - Que Te Parece, Cholito?
TTITLE2=La Sonora Mantancera/ Celio Gonzalez - Vendaval Son Rumbo
TTITLE3=Noro Morales - Serenata Ritmica
TTITLE4=Bobby Paunetto - Aguantando
TTITLE5=La Sonora Matancera - Cuban Pete
TTITLE6=Guillermo Portabales Y Trio Matamoros - Carinito
TTITLE7=Celia Cruz Y La Sonora Matancera - Cao Cao Mani Picao
TTITLE8=Tito Puente - Caravan
TTITLE9=Orquesta Riverside - Mambo En España
TTITLE10=Bienvenido Granada Con La Sonora Matancera - Ritmo De Mi Cuba
TTITLE11=Babalu Miguelito Valdes Con Noro Morales - Tambó
TTITLE12=Rene Grand Y Su Super Combo New York - Descargo Combo N.Y.
EXTD=YEAR: 2004
EXTT0=
EXTT1=
EXTT2=
EXTT3=
EXTT4=
EXTT5=
EXTT6=
EXTT7=
EXTT8=
EXTT9=
EXTT10=
EXTT11=
EXTT12=
PLAYORDER=
